<svg version="1.2" xmlns="http://www.w3.org/2000/svg" viewBox="0 0 1563 168" width="930" height="100">
	<style>
		tspan { white-space:pre } 
		.s0 { fill: #283134 } 
		.s1 { fill: #f7b619 }
	</style>
	<g id="P82">
		<path id="PROMETHEUS" fill-rule="evenodd" class="s0" d="m109.26 121.34h-62.31v45.93h-47.39v-167.84h109.7q4.15 0 6.71 4.15 2.57 4.16 2.57 8.06v97.49q0 4.64-2.93 8.42-2.94 3.79-6.35 3.79zm-38.12-70.36q-0.73-3.67-4.15-4.16h-16.13q-3.17 0.25-3.91 4.16v24.92h24.19zm181.04 27.61q-0.97 6.35-6.1 10.38-5.14 4.03-11 7.45l-2.69 1.22 24.44 69.64h-49.11l-27.12-66.22v66.22h-47.4v-167.85h109.7q4.15 0 6.72 4.15 2.56 4.16 2.56 8.06zm-47.4-27.61q-0.73-3.66-4.15-4.15h-16.12q-3.18 0.25-3.91 4.15v24.44h24.18zm167.61-51.56q0.97 0.01 3.18 5.99 2.19 5.99 4.52 13.8 2.31 7.83 4.03 15.76 1.71 7.95 1.71 11.85v73.05q0 3.92-1.71 11.85-1.72 7.95-4.03 15.76-2.33 7.82-4.52 13.81-2.21 5.99-3.18 5.98h-92.11q-0.98 0.01-3.18-5.98-2.2-5.99-4.52-13.81-2.32-7.81-4.03-15.76-1.71-7.93-1.71-11.85v-73.05q0-3.9 1.71-11.85 1.71-7.93 4.03-15.76 2.32-7.81 4.52-13.8 2.2-5.98 3.18-5.99zm-58.15 116.06q0.73 4.39 4.64 4.39h14.91q3.9 0 4.64-4.39v-64.5q-0.74-4.16-4.64-4.16h-14.91q-3.91 0-4.64 4.16zm205.48 51.79h-47.65v-116.05q-0.73-4.4-4.64-4.4h-14.9q-3.91 0-4.64 4.4v116.05h-47.4v-167.85h86.73q0 0.98 3.06 5.87 3.05 4.89 5.49 13.19 1.47-5.62 3.67-9.65 2.19-4.03 4.88-9.41h73.54q0.98 0 3.18 5.99 2.2 5.99 4.52 13.8 2.32 7.83 4.03 15.76 1.71 7.95 1.71 11.85v120.45h-47.4v-116.05q-0.73-4.4-4.64-4.4h-14.9q-3.91 0-4.64 4.4zm86.24-167.85h85.27q0.97 0 3.18 5.99 2.19 5.99 4.52 13.8 2.31 7.82 4.03 15.76 1.71 7.94 1.71 11.85h-46.67q-3.91 0-4.64 4.15v22.72h37.87q0.24 0 1.22 2.94 0.98 2.93 0.98 6.35 0 1.71-0.49 4.64-0.49 2.93-1.71 4.89h-37.87v22.96q0.73 4.4 4.64 4.4h46.67q0 3.91-1.71 11.85-1.72 7.94-4.03 15.76-2.33 7.82-4.52 13.8-2.21 5.99-3.18 5.99h-85.27zm143.66 167.85v-116.05q-0.73-4.4-4.64-4.4h-25.65q0-3.91 1.71-11.85 1.7-7.94 4.03-15.76 2.32-7.82 4.52-13.8 2.2-5.99 3.17-5.99h81.36q0.98 0 3.18 5.99 2.2 5.98 4.52 13.8 2.32 7.82 4.03 15.76 1.71 7.94 1.71 11.85h-25.9q-3.91 0-4.64 4.15v116.3zm164.18 0v-65.97h-24.18v65.97h-47.4v-167.85h47.4v65.48h24.18v-65.48h47.4v167.85zm62.06-167.85h85.27q0.97 0 3.17 5.99 2.2 5.98 4.52 13.8 2.32 7.82 4.04 15.76 1.7 7.94 1.71 11.85h-46.67q-3.91 0-4.64 4.15v22.72h37.87q0.24 0 1.22 2.94 0.98 2.93 0.98 6.35 0 1.71-0.49 4.64-0.49 2.93-1.71 4.89h-37.87v22.96q0.73 4.4 4.64 4.4h46.67q-0.01 3.91-1.71 11.85-1.72 7.94-4.04 15.76-2.32 7.82-4.52 13.8-2.2 5.99-3.17 5.99h-85.27zm160.76 116.05q0.74 4.4 4.65 4.4h14.9q3.91 0 4.64-4.4v-116.05h47.4v167.85h-105.55q-0.97 0-3.17-5.99-2.2-5.98-4.52-13.8-2.33-7.82-4.03-15.76-1.72-7.94-1.71-11.85v-120.45h47.39zm95.53-22.97q-2.2 0-4.03-1.34-1.83-1.34-2.93-3.18-1.1-1.83-1.71-4.03-0.61-2.2-0.61-3.66v-68.66q0-3.9 2.56-8.06 2.57-4.15 6.72-4.15h75.5q0.97 0 3.17 5.98 2.2 5.99 4.52 13.81 2.32 7.82 4.04 15.75 1.7 7.95 1.71 11.85h-43.49q-4.16 0.01-4.89 4.16v22.96l0.25-0.24h38.84q4.15 0 6.72 4.4 2.57 4.4 2.57 8.3v68.66q0 3.91-2.57 8.06-2.57 4.16-6.72 4.15h-75.49q-0.98 0.01-3.18-5.98-2.2-5.98-4.52-13.81-2.32-7.81-4.03-15.75-1.71-7.94-1.71-11.85h43.49q3.91 0 4.64-4.16v-23.21z"/>
		<path id="82" fill-rule="evenodd" class="s1" d="m1444.96 83.96q0 0.49 0.73 0.73 3.18 1.96 6.11 6.23 2.93 4.28 3.42 7.46v56.68q0 3.91-2.56 8.06-2.57 4.16-6.72 4.15h-100.91q-4.15 0.01-6.72-4.15-2.56-4.15-2.56-8.06v-56.68q0.49-3.18 3.42-7.46 2.93-4.27 6.11-6.23 0.73-0.24 0.73-0.73 0-0.49-0.49-0.98-0.73-0.97-2.32-2.56-1.59-1.59-3.18-3.42-1.59-1.83-2.81-3.67-1.22-1.83-1.46-3.54v-58.15q0-3.9 2.56-8.06 2.57-4.15 6.72-4.15h100.91q4.15 0 6.72 4.15 2.56 4.16 2.56 8.06v58.15q-0.24 1.71-1.46 3.54-1.23 1.84-2.81 3.67-1.6 1.83-3.18 3.42-1.59 1.59-2.32 2.56-0.49 0.49-0.49 0.98zm-61.81 31.52q0.73 4.16 3.91 4.4h16.12q1.47-0.25 2.81-1.35 1.34-1.1 1.83-3.05v-22.97h-24.67zm0-64.99v23.21h24.67v-23.21q0-1.22-1.34-2.44-1.35-1.22-3.3-1.22h-16.86q-1.71 0.49-2.44 1.59-0.73 1.1-0.73 2.07zm134.13 42.03v23.21q0.73 4.15 4.64 4.15h40.8q0 3.91-1.71 11.85-1.71 7.94-4.03 15.76-2.32 7.82-4.52 13.8-2.2 5.99-3.18 5.99h-70.12q-4.15 0-6.71-4.16-2.57-4.15-2.57-8.06v-68.65q0-3.91 2.57-8.31 2.56-4.4 6.71-4.4h36.16l0.25 0.25v-22.97q-0.74-4.15-4.89-4.15h-40.8q0-3.91 1.71-11.85 1.71-7.94 4.03-15.76 2.32-7.82 4.52-13.8 2.2-5.99 3.18-5.99h70.12q4.15 0 6.72 4.15 2.56 4.16 2.56 8.07v68.65q0 1.47-0.61 3.66-0.61 2.2-1.71 4.04-1.1 1.83-2.93 3.17-1.83 1.35-4.03 1.35z"/>
	</g>
</svg>
