<svg version="1.2" xmlns="http://www.w3.org/2000/svg" viewBox="-20 0 1603 168" width="930" height="100">
	<style>
		tspan { white-space:pre } 
		.s0 { fill: #283134 } 
		.s1 { fill: #f7b619 } 
	</style>
	<defs>
		<!-- Mask to cut out the numbers 82 from the yellow badge -->
		<mask id="badge-mask-final">
			<!-- Background white: makes badge visible -->
			<rect x="1320" y="-10" width="280" height="188" fill="white" />
			<!-- Numbers 82 black: cuts them out from the badge -->
			<path fill-rule="evenodd" fill="black" d="M 1450.84 83.84 Q 1450.84 84.23 1451.42 84.42 Q 1453.94 85.97 1456.27 89.37 Q 1458.6 92.76 1458.99 95.28 L 1458.99 140.3 Q 1458.99 143.4 1456.95 146.7 Q 1454.91 150 1451.61 150 L 1371.48 150 Q 1368.18 150 1366.15 146.7 Q 1364.11 143.4 1364.11 140.3 L 1364.11 95.28 Q 1364.5 92.76 1366.83 89.37 Q 1369.16 85.97 1371.68 84.42 Q 1372.26 84.23 1372.26 83.84 Q 1372.26 83.45 1371.87 83.06 Q 1371.29 82.29 1370.03 81.02 Q 1368.77 79.76 1367.51 78.31 Q 1366.24 76.85 1365.28 75.4 Q 1364.3 73.94 1364.11 72.58 L 1364.11 26.41 Q 1364.11 23.31 1366.15 20.01 Q 1368.18 16.71 1371.48 16.71 L 1451.61 16.71 Q 1454.91 16.71 1456.95 20.01 Q 1458.99 23.31 1458.99 26.41 L 1458.99 72.58 Q 1458.79 73.94 1457.82 75.4 Q 1456.85 76.85 1455.59 78.31 Q 1454.33 79.76 1453.07 81.02 Q 1451.81 82.29 1451.23 83.06 Q 1450.84 83.45 1450.84 83.84 Z M 1398.32 117.26 Q 1399.1 121.7 1402.52 121.97 L 1419.8 121.97 Q 1421.36 121.7 1422.81 120.51 Q 1424.25 119.34 1424.78 117.26 L 1424.78 92.62 L 1398.32 92.62 Z M 1398.32 48.8 L 1398.32 73.68 L 1424.78 73.68 L 1424.78 48.8 Q 1424.78 47.49 1423.34 46.18 Q 1421.89 44.87 1419.8 44.87 L 1401.72 44.87 Q 1399.89 45.4 1399.1 46.57 Q 1398.32 47.75 1398.32 48.8 Z M 1508.27 90.62 L 1508.27 109.05 Q 1508.85 112.35 1511.95 112.35 L 1544.36 112.35 Q 1544.35 115.46 1543 121.76 Q 1541.64 128.07 1539.8 134.28 Q 1537.95 140.49 1536.21 145.24 Q 1534.46 149.99 1533.68 149.99 L 1478 149.99 Q 1474.7 149.99 1472.67 146.69 Q 1470.63 143.4 1470.63 140.29 L 1470.63 85.77 Q 1470.63 82.67 1472.67 79.17 Q 1474.7 75.68 1478 75.68 L 1506.72 75.68 L 1506.91 75.88 L 1506.91 57.64 Q 1506.33 54.34 1503.03 54.34 L 1470.63 54.34 Q 1470.63 51.24 1471.99 44.93 Q 1473.34 38.63 1475.19 32.41 Q 1477.03 26.21 1478.78 21.45 Q 1480.52 16.7 1481.3 16.7 L 1536.98 16.7 Q 1540.28 16.7 1542.32 20 Q 1544.36 23.31 1544.36 26.4 L 1544.36 80.92 Q 1544.35 82.08 1543.87 83.83 Q 1543.39 85.58 1542.51 87.03 Q 1541.64 88.5 1540.18 89.55 Q 1538.73 90.62 1536.98 90.62 Z" />
		</mask>
	</defs>
	<g id="P82_final_logo">
		<!-- PROMETHEUS Wordmark (Concept 9A with corrected P/R holes and enclosed spark O) -->
		<path id="PROMETHEUS" fill-rule="evenodd" class="s0" d="M 109.26 121.34 L 46.95 121.34 L 46.95 167.27 L -0.44 167.27 L -0.44 -0.57 L 109.26 -0.57 Q 113.41 -0.57 115.97 3.58 Q 118.54 7.74 118.54 11.64 L 118.54 109.13 Q 118.54 113.77 115.61 117.55 Q 112.67 121.34 109.26 121.34 Z M 79.61 42.26 Q 78.62 37.3 74 36.64 L 52.23 36.64 Q 47.95 36.98 46.95 42.26 L 46.95 75.9 L 79.61 75.9 Z M 252.18 78.59 Q 251.21 84.94 246.08 88.97 Q 240.94 93 235.08 96.42 L 232.39 97.64 L 256.83 167.28 L 207.72 167.28 L 180.6 101.06 L 180.6 167.28 L 133.2 167.28 L 133.2 -0.57 L 242.9 -0.57 Q 247.05 -0.57 249.62 3.58 Q 252.18 7.74 252.18 11.64 Z M 213.24 42.43 Q 212.26 37.49 207.64 36.82 L 185.88 36.82 Q 181.59 37.16 180.6 42.43 L 180.6 75.42 L 213.24 75.42 Z M 372.39 -0.58 L 280.28 -0.58 Q 278.07 -0.58 275.87 5.41 Q 273.68 11.4 271.35 19.21 Q 269.04 27.03 267.33 34.97 Q 265.62 42.91 265.62 46.82 L 265.62 119.87 Q 265.62 123.78 267.33 131.72 Q 269.04 139.66 271.35 147.48 Q 273.68 155.3 275.87 161.28 Q 278.07 167.27 279.04 167.27 L 371.15 167.27 Q 372.13 167.27 374.33 161.28 Q 376.53 155.3 378.85 147.48 Q 381.17 139.66 382.88 131.72 Q 384.59 123.78 384.59 119.87 L 384.59 46.82 Q 384.59 42.92 382.88 34.97 Q 381.17 27.03 378.85 19.21 Q 376.53 11.4 374.33 5.41 Q 372.13 -0.58 371.15 -0.58 Z M 326.34 16.2 Q 326.34 83.35 373.94 83.35 Q 326.34 83.35 326.34 150.5 Q 326.34 83.35 278.74 83.35 Q 326.34 83.35 326.34 16.2 Z M 519.72 167.27 L 472.07 167.27 L 472.07 51.22 Q 471.34 46.82 467.43 46.82 L 452.53 46.82 Q 448.62 46.82 447.89 51.22 L 447.89 167.27 L 400.49 167.27 L 400.49 -0.58 L 487.22 -0.58 Q 487.22 0.4 490.28 5.29 Q 493.33 10.18 495.77 18.48 Q 497.24 12.86 499.44 8.83 Q 501.63 4.8 504.32 -0.58 L 577.86 -0.58 Q 578.84 -0.58 581.04 5.41 Q 583.24 11.4 585.56 19.21 Q 587.88 27.04 589.59 34.97 Q 591.3 42.92 591.3 46.82 L 591.3 167.27 L 543.9 167.27 L 543.9 51.22 Q 543.17 46.82 539.26 46.82 L 524.36 46.82 Q 520.45 46.82 519.72 51.22 Z M 605.96 -0.58 L 691.23 -0.58 Q 692.2 -0.58 694.41 5.41 Q 696.6 11.4 698.93 19.21 Q 701.24 27.03 702.96 34.97 Q 704.67 42.91 704.67 46.82 L 658 46.82 Q 654.09 46.82 653.36 50.97 L 653.36 73.69 L 691.23 73.69 Q 691.47 73.69 692.45 76.63 Q 693.43 79.56 693.43 82.98 Q 693.43 84.69 692.94 87.62 Q 692.45 90.55 691.23 92.51 L 653.36 92.51 L 653.36 115.47 Q 654.09 119.87 658 119.87 L 704.67 119.87 Q 704.67 123.78 702.96 131.72 Q 701.24 139.66 698.93 147.48 Q 696.6 155.3 694.41 161.28 Q 692.2 167.27 691.23 167.27 L 605.96 167.27 Z M 749.62 167.27 L 749.62 51.22 Q 748.89 46.82 744.98 46.82 L 719.33 46.82 Q 719.33 42.91 721.04 34.97 Q 722.74 27.03 725.07 19.21 Q 727.39 11.39 729.59 5.41 Q 731.79 -0.58 732.76 -0.58 L 814.12 -0.58 Q 815.1 -0.58 817.3 5.41 Q 819.5 11.39 821.82 19.21 Q 824.14 27.03 825.85 34.97 Q 827.56 42.91 827.56 46.82 L 801.66 46.82 Q 797.75 46.82 797.02 50.97 L 797.02 167.27 Z M 913.8 167.27 L 913.8 101.3 L 889.62 101.3 L 889.62 167.27 L 842.22 167.27 L 842.22 -0.58 L 889.62 -0.58 L 889.62 64.9 L 913.8 64.9 L 913.8 -0.58 L 961.2 -0.58 L 961.2 167.27 Z M 975.86 -0.58 L 1061.13 -0.58 Q 1062.1 -0.58 1064.3 5.41 Q 1066.5 11.39 1068.82 19.21 Q 1071.14 27.03 1072.86 34.97 Q 1074.56 42.91 1074.57 46.82 L 1027.9 46.82 Q 1023.99 46.82 1023.26 50.97 L 1023.26 73.69 L 1061.13 73.69 Q 1061.37 73.69 1062.35 76.63 Q 1063.33 79.56 1063.33 82.98 Q 1063.33 84.69 1062.84 87.62 Q 1062.35 90.55 1061.13 92.51 L 1023.26 92.51 L 1023.26 115.47 Q 1023.99 119.87 1027.9 119.87 L 1074.57 119.87 Q 1074.56 123.78 1072.86 131.72 Q 1071.14 139.66 1068.82 147.48 Q 1066.5 155.3 1064.3 161.28 Q 1062.1 167.27 1061.13 167.27 L 975.86 167.27 Z M 1136.62 115.47 Q 1137.36 119.87 1141.27 119.87 L 1156.17 119.87 Q 1160.08 119.87 1160.81 115.47 L 1160.81 -0.58 L 1208.21 -0.58 L 1208.21 167.27 L 1102.66 167.27 Q 1101.69 167.27 1099.49 161.28 Q 1097.29 155.3 1094.97 147.48 Q 1092.64 139.66 1090.94 131.72 Q 1089.22 123.78 1089.23 119.87 L 1089.23 -0.58 L 1136.62 -0.58 Z M 1232.15 92.5 Q 1229.95 92.5 1228.12 91.16 Q 1226.29 89.82 1225.19 87.98 Q 1224.09 86.15 1223.48 83.95 Q 1222.87 81.75 1222.87 80.29 L 1222.87 11.63 Q 1222.87 7.73 1225.43 3.57 Q 1228 -0.58 1232.15 -0.58 L 1307.65 -0.58 Q 1308.62 -0.58 1310.82 5.4 Q 1313.02 11.39 1315.34 19.21 Q 1317.66 27.03 1319.38 34.96 Q 1321.08 42.91 1321.09 46.81 L 1277.6 46.81 Q 1273.44 46.82 1272.71 50.97 L 1272.71 73.93 L 1272.96 73.69 L 1311.8 73.69 Q 1315.95 73.69 1318.52 78.09 Q 1321.09 82.49 1321.09 86.39 L 1321.09 155.05 Q 1321.09 158.96 1318.52 163.11 Q 1315.95 167.27 1311.8 167.26 L 1236.31 167.26 Q 1235.33 167.27 1233.13 161.28 Q 1230.93 155.3 1228.61 147.47 Q 1226.29 139.66 1224.58 131.72 Q 1222.87 123.78 1222.87 119.87 L 1266.36 119.87 Q 1270.27 119.87 1271 115.71 L 1271 92.5 Z"/>
		
		<!-- Yellow badge / rounded frame -->
		<path id="BADGE" class="s1" mask="url(#badge-mask-final)" d="M 1363.12 -0.58 H 1545.35 A 18 18 0 0 1 1563.35 17.42 V 149.28 A 18 18 0 0 1 1545.35 167.28 H 1363.12 A 18 18 0 0 1 1345.12 149.28 V 17.42 A 18 18 0 0 1 1363.12 -0.58 Z" />
	</g>
</svg>
